<svg xmlns="http://www.w3.org/2000/svg" xmlns:xlink="http://www.w3.org/1999/xlink" width="124" height="124" viewBox="0 0 124 124">
    <defs>
        <circle id="b" cx="29" cy="29" r="29"/>
        <filter id="a" width="313.8%" height="313.8%" x="-106.9%" y="-69%" filterUnits="objectBoundingBox">
            <feOffset dy="22" in="SourceAlpha" result="shadowOffsetOuter1"/>
            <feGaussianBlur in="shadowOffsetOuter1" result="shadowBlurOuter1" stdDeviation="17"/>
            <feColorMatrix in="shadowBlurOuter1" values="0 0 0 0 0.105882353 0 0 0 0 0.470588235 0 0 0 0 0.780392157 0 0 0 0.660297781 0"/>
        </filter>
    </defs>
    <g fill="none" fill-rule="evenodd">
        <g transform="translate(33 11)">
            <use fill="#000" filter="url(#a)" xlink:href="#b"/>
            <use fill="#FFF" xlink:href="#b"/>
        </g>
        <path d="M51 27h24v24H51z"/>
        <g fill="#3397E9" fill-rule="nonzero">
            <path d="M66 40h2c0-3.309-2.691-6-6-6v2c2.206 0 4 1.795 4 4z"/>
            <path d="M62 30v2c4.411 0 8 3.589 8 8h2c0-5.514-4.485-10-10-10zM62 38v2h2a2 2 0 0 0-2-2z"/>
            <path d="M69 43h-4a1 1 0 0 0-1 1v1c-4 0-6.937-3.062-7-7h1a1 1 0 0 0 1-1v-4a1 1 0 0 0-1-1h-4a1 1 0 0 0-1 1v5c0 6.075 4.925 11 11 11h5a1 1 0 0 0 1-1v-4a1 1 0 0 0-1-1z"/>
        </g>
    </g>
</svg>
