<svg xmlns="http://www.w3.org/2000/svg" width="42" height="42" viewBox="0 0 42 42">
    <g fill="none" fill-rule="evenodd" transform="translate(1 1)">
        <rect width="40" height="40" stroke="#EDF4FA" stroke-linecap="square" rx="20"/>
        <path fill="#CBCBDB" d="M29.15 14.746a7.425 7.425 0 0 1-2.139.586c.77-.46 1.36-1.19 1.637-2.06a7.414 7.414 0 0 1-2.365.903 3.723 3.723 0 0 0-6.344 3.396 10.57 10.57 0 0 1-7.676-3.89 3.714 3.714 0 0 0-.503 1.872c0 1.292.657 2.431 1.656 3.1a3.722 3.722 0 0 1-1.687-.465v.046a3.724 3.724 0 0 0 2.988 3.65 3.643 3.643 0 0 1-.982.132c-.24 0-.474-.023-.7-.067a3.722 3.722 0 0 0 3.478 2.585 7.471 7.471 0 0 1-4.625 1.595c-.3 0-.597-.017-.888-.052a10.555 10.555 0 0 0 5.708 1.673c6.85 0 10.594-5.674 10.594-10.594 0-.162-.003-.324-.01-.482a7.558 7.558 0 0 0 1.857-1.928"/>
    </g>
</svg>
