<?xml version="1.0" encoding="UTF-8"?>
<svg width="79px" height="68px" viewBox="0 0 79 68" version="1.1" xmlns="http://www.w3.org/2000/svg" xmlns:xlink="http://www.w3.org/1999/xlink">
    <!-- Generator: Sketch 48.2 (47327) - http://www.bohemiancoding.com/sketch -->
    <title>Page 1@1x</title>
    <desc>Created with Sketch.</desc>
    <defs></defs>
    <g id="homepage_menu" stroke="none" stroke-width="1" fill="none" fill-rule="evenodd" transform="translate(-249.000000, -711.000000)">
        <g id="Group-5">
            <g id="Page-1" transform="translate(251.000000, 711.000000)">
                <path d="M36.9411118,27 L36.9411118,16.7437927 L36.7191826,16.8312781 C36.0638321,17.090235 35.1497473,17.2267122 34,17.2389602 L34,15.4075987 C35.8902439,15.3632728 37.013074,14.553741 37.3415733,13 L39,13 L39,27 L36.9411118,27 Z" id="Fill-1" fill="#3397E9"></path>
                <path d="M8,39 C8.02590011,37.9519683 8.28087229,37.0409915 8.76088764,36.2898146 C8.99801752,35.921808 9.34680565,35.5053947 9.79631643,35.0522391 C10.2469783,34.5973339 10.8156296,34.0817746 11.4861546,33.5207248 C12.0830082,33.0232452 12.5952548,32.5753385 13.0108077,32.1915851 C13.4280872,31.8043324 13.7688175,31.4363258 14.0249408,31.0968965 C14.2873953,30.7493022 14.4773294,30.4005416 14.5895632,30.0605291 C14.7029481,29.7205166 14.7599284,29.3425953 14.7599284,28.9390127 C14.7599284,28.284649 14.5763254,27.7638409 14.2131483,27.3923349 C13.8493957,27.0196626 13.331969,26.8312851 12.6735307,26.8312851 C12.3938096,26.8312851 12.1227217,26.8884399 11.8677496,27.0033326 C11.6116263,27.1182254 11.3842809,27.2920225 11.1897423,27.5200583 C11.0003837,27.7440117 10.8403786,28.025703 10.7143314,28.3569673 C10.6043998,28.6444907 10.5324551,28.972839 10.4990727,29.3355968 L8.28087229,29.3355968 C8.34533478,28.7191418 8.48461981,28.1516767 8.6970007,27.6454489 C8.92952612,27.0913976 9.24032743,26.6137471 9.62192236,26.2247448 C10.0017906,25.8374922 10.4576325,25.5336388 10.9762103,25.3213497 C11.4959391,25.1084774 12.0795549,25 12.7103664,25 C13.390676,25 14.0053719,25.1038117 14.5348852,25.3079358 C15.0626719,25.5114768 15.5098804,25.7931681 15.8649997,26.145428 C16.2189678,26.4971048 16.493509,26.9193501 16.6805653,27.3987503 C16.8676217,27.8810664 16.9625887,28.4117892 16.9625887,28.9769215 C16.9625887,29.4953968 16.8940973,29.9823787 16.7588412,30.4250365 C16.6241606,30.8647782 16.4181109,31.2887732 16.1470231,31.6865236 C15.8908998,32.0562799 15.4966426,32.5076859 14.9769137,33.0279109 C14.4502782,33.5528015 13.7987466,34.1540929 13.0395856,34.8142887 C12.5831681,35.2167049 12.1906376,35.5718809 11.8614184,35.8803999 C11.5304726,36.191835 11.2795293,36.447865 11.1160709,36.6426578 L10.873761,36.9307644 L17,36.9307644 L17,39 L8,39 Z" id="Fill-3" fill="#3397E9"></path>
                <path d="M62.4753623,39 C61.8336232,39 61.2371014,38.8949871 60.7037681,38.6884043 C60.1715942,38.4818215 59.7049275,38.1868672 59.3171014,37.812149 C58.9269565,37.4351355 58.613913,36.9766365 58.3866667,36.4481289 C58.1791304,35.9661024 58.0492754,35.4249703 58,34.8373571 L60.2481159,34.8373571 C60.262029,35.1105054 60.3084058,35.3750461 60.386087,35.624667 C60.4817391,35.9316719 60.6266667,36.2048203 60.8156522,36.4360782 C61.0069565,36.6702054 61.2428986,36.8578514 61.5176812,36.992704 C61.7930435,37.1287043 62.1153623,37.1981391 62.4753623,37.1981391 C62.8202899,37.1981391 63.1385507,37.1350166 63.4214493,37.0099193 C63.7043478,36.8859696 63.9507246,36.7115219 64.1518841,36.4905931 C64.3513043,36.2719597 64.5066667,36.0062713 64.6133333,35.700414 C64.7176812,35.4002951 64.7710145,35.0674673 64.7710145,34.7116859 C64.7710145,33.9662663 64.5495652,33.386113 64.1124638,32.9878674 C63.68,32.5942124 63.0417391,32.3945157 62.2156522,32.3945157 L61.324058,32.3945157 L61.324058,30.6024101 L61.955942,30.6024101 C63.3733333,30.6024101 64.1223188,29.9115055 64.1223188,28.6042956 C64.1223188,28.028733 63.9669565,27.5799893 63.6608696,27.2701152 C63.3524638,26.9590933 62.9130435,26.801287 62.3547826,26.801287 C61.2342029,26.801287 60.5721739,27.4973562 60.3849275,28.8722794 L58.1582609,28.8722794 C58.2382609,28.2840923 58.3884058,27.7561585 58.6063768,27.2993811 C58.8463768,26.7966963 59.1536232,26.3697586 59.5176812,26.0311924 C59.8811594,25.6932 60.3055072,25.43325 60.7791304,25.2616715 C61.2550725,25.0877977 61.7721739,25 62.3182609,25 C62.9310145,25 63.4921739,25.0912407 63.9855072,25.270853 C64.4771014,25.4493175 64.9031884,25.7018076 65.2527536,26.0225847 C65.6,26.3404927 65.8707246,26.72554 66.0591304,27.1668238 C66.2463768,27.6075337 66.3414493,28.101037 66.3414493,28.63184 C66.3414493,29.1052588 66.2405797,29.5683486 66.0417391,30.0084846 C65.8446377,30.4463254 65.5373913,30.8296512 65.1292754,31.1475591 L64.9182609,31.3128253 L65.1565217,31.4356273 C65.7518841,31.7432061 66.2127536,32.1839161 66.5252174,32.747428 C66.84,33.3161044 67,33.967414 67,34.6841415 C67,35.3193835 66.8828986,35.9075706 66.6521739,36.4326352 C66.4214493,36.9588474 66.0997101,37.4179202 65.6962319,37.7960815 C65.2915942,38.1753904 64.8086957,38.4737878 64.2614493,38.6826659 C63.7118841,38.8926917 63.1107246,39 62.4753623,39" id="Fill-5" fill="#3397E9"></path>
                <path d="M50,66 L25,66 L25,38.8254547 C25,36.7130824 26.7009255,35 28.7983072,35 L46.2011115,35 C48.2990745,35 50,36.7130824 50,38.8254547 L50,66 Z" id="Stroke-7" stroke="#C2D7E7" stroke-width="3" fill="#FFFFFF"></path>
                <path d="M75,66 L50,66 L50,48 L71.2011115,48 C73.2990745,48 75,49.694213 75,51.7833178 L75,66 Z" id="Stroke-9" stroke="#C2D7E7" stroke-width="3"></path>
                <path d="M75,66 L50,66 L50,48 L71.2011115,48 C73.2990745,48 75,49.694213 75,51.7833178 L75,66 Z" id="Stroke-11" stroke="#C2D7E7" stroke-width="3" fill="#FFFFFF"></path>
                <path d="M25,66 L0,66 L0,51.7833178 C0,49.694213 1.70092545,48 3.79888853,48 L25,48 L25,66 Z" id="Stroke-13" stroke="#C2D7E7" stroke-width="3" fill="#FFFFFF"></path>
                <path d="M33,7 L31,2" id="Stroke-18" stroke="#C2D7E7" stroke-width="3"></path>
                <path d="M29,10 L25,6" id="Stroke-20" stroke="#C2D7E7" stroke-width="3"></path>
                <path d="M46,10 L50,6" id="Stroke-22" stroke="#C2D7E7" stroke-width="3"></path>
                <path d="M42,7 L44,2" id="Stroke-24" stroke="#C2D7E7" stroke-width="3"></path>
                <path d="M37.7,6.19213689 L37.2274532,0.779583226" id="Stroke-24-Copy" stroke="#C2D7E7" stroke-width="3"></path>
                <path d="M29,54.3066104 L29,62 L46,62 L46,42 C46,42 41.3478649,54.1601031 29,54.3066104" id="Fill-26" fill="#3397E9"></path>
            </g>
        </g>
    </g>
</svg>