<svg xmlns="http://www.w3.org/2000/svg" width="122" height="122" viewBox="0 0 122 122">
    <g fill="none" fill-rule="evenodd">
        <circle cx="61" cy="61" r="61" fill="#41AAFD" fill-opacity=".112"/>
        <path fill="#FFF" stroke="#C2D7E7" stroke-linecap="round" stroke-width="3" d="M51.673 33H95v40H28V33z"/>
        <path stroke="#C2D7E7" stroke-linecap="round" stroke-width="3" d="M95.325 33.211H26.748c-1.36 0-2.463-1.091-2.463-2.438 0-1.347 1.103-2.438 2.463-2.438h68.577c1.361 0 2.464 1.091 2.464 2.438 0 1.347-1.103 2.438-2.464 2.438zM67.606 73.172v1.148c0 2.176-1.783 3.94-3.982 3.94H58.45c-2.199 0-3.981-1.764-3.981-3.94v-1.148M61.037 89.796V78.261"/>
        <path fill="#3397E9" d="M91.098 59.108V69.79H30.975V59.107a180.42 180.42 0 0 0 60.123 0"/>
        <path stroke="#C2D7E7" stroke-linecap="round" stroke-width="3" d="M74.704 98.718v-2.795c0-3.384-2.77-6.127-6.189-6.127H53.56c-3.419 0-6.19 2.743-6.19 6.127v2.795M55.913 95.009H66.16"/>
    </g>
</svg>
